<svg width="1280" height="280" viewBox="0 0 1280 280" fill="none" xmlns="http://www.w3.org/2000/svg">
<path fill-rule="evenodd" clip-rule="evenodd" d="M742.227 -486.44L-105 123.164L-52.1778 320.299L921.438 -386.983L2088.08 -157.355L2035.26 -354.49L883.341 -588L742.146 -486.422L742.227 -486.44Z" fill="#450025"/>
<path fill-rule="evenodd" clip-rule="evenodd" d="M778.67 -350.431L-68.5562 259.174L-15.734 456.309L957.882 -250.973L2124.52 -21.3455L2071.7 -218.481L919.785 -451.991L778.59 -350.413L778.67 -350.431Z" fill="#670037"/>
<path fill-rule="evenodd" clip-rule="evenodd" d="M868.478 -15.2642L21.2513 594.34L74.0735 791.475L1047.69 84.1934L2214.33 313.821L2161.51 116.686L1009.59 -116.824L868.398 -15.2462L868.478 -15.2642Z" fill="#C7006B"/>
<path fill-rule="evenodd" clip-rule="evenodd" d="M826.828 -170.704L-20.3987 438.901L32.4235 636.036L1006.04 -71.246L2172.68 158.382L2119.86 -38.7536L967.943 -272.263L826.748 -170.686L826.828 -170.704Z" fill="#810045"/>
<path fill-rule="evenodd" clip-rule="evenodd" d="M920.487 173.843L73.2602 783.448L126.082 980.583L1099.7 273.301L2266.34 502.929L2213.52 305.793L1061.6 72.2835L920.406 173.861L920.487 173.843Z" fill="#FF008A"/>
<path d="M0.84539 -0.902832H1280.85V279.097H0.84539V-0.902832Z" fill="white" fill-opacity="0.09"/>
</svg>
