<svg width="1920" height="1080" viewBox="0 0 1920 1080" fill="none" xmlns="http://www.w3.org/2000/svg">
<path d="M714.598 481.621H660.098V452.871H800.598V481.621H746.098V627.121H714.598V481.621Z" fill="#FDFDFD"/>
<path d="M888.598 508.383L874.098 534.883C869.848 532.133 865.098 530.633 859.098 530.633C840.848 530.633 831.848 541.883 831.848 565.133V627.133H801.848V503.883H832.098V524.883C837.348 509.633 851.098 501.383 865.098 501.383C873.348 501.383 880.598 503.383 888.598 508.383Z" fill="#FDFDFD"/>
<path d="M903.086 452.883H934.586V480.633H903.086V452.883ZM903.836 503.883H933.836V627.133H903.836V503.883Z" fill="#FDFDFD"/>
<path d="M967.586 597.621V452.871H997.586V595.621C997.586 601.121 1000.84 603.371 1006.34 603.371C1009.09 603.371 1012.34 602.871 1015.84 601.871V625.871C1009.09 628.371 1002.34 629.621 996.586 629.621C979.836 629.621 967.586 619.621 967.586 597.621Z" fill="#FDFDFD"/>
<path d="M1149.34 547.621V627.121H1119.34V555.121C1119.34 536.371 1112.09 527.621 1096.59 527.621C1076.84 527.621 1068.59 542.371 1068.59 577.871V627.121H1038.59V452.871H1068.59V517.871C1076.84 507.121 1089.59 501.371 1105.84 501.371C1133.59 501.371 1149.34 518.121 1149.34 547.621Z" fill="#FDFDFD"/>
<path d="M1282.09 549.383V627.133H1254.59L1252.09 611.133C1244.84 622.633 1230.84 629.633 1214.59 629.633C1188.59 629.633 1170.09 612.883 1170.09 589.383C1170.09 574.883 1176.59 563.883 1188.59 558.383C1196.84 554.633 1207.34 552.883 1221.34 552.883H1252.09V549.383C1252.09 535.883 1243.09 527.633 1228.84 527.633C1216.34 527.633 1204.59 534.133 1195.59 546.133L1173.84 527.883C1188.59 510.133 1206.84 501.383 1229.34 501.383C1261.84 501.383 1282.09 519.633 1282.09 549.383ZM1252.09 575.383H1225.34C1215.09 575.383 1209.09 576.633 1205.09 579.633C1201.84 581.883 1200.09 585.383 1200.09 589.883C1200.09 598.633 1207.34 604.133 1219.34 604.133C1237.34 604.133 1252.09 591.383 1252.09 575.383Z" fill="#FDFDFD"/>
<path d="M1319.4 594.621H1349.65V627.121H1319.4V594.621Z" fill="#008FF6"/>
<path d="M1387.65 452.883H1418.9V627.133H1387.65V452.883Z" fill="#E1047B"/>
<path d="M1569.15 547.621V627.121H1539.15V555.121C1539.15 546.621 1539.15 527.621 1516.4 527.621C1488.4 527.621 1488.4 555.871 1488.4 577.871V627.121H1458.4V503.871H1488.4V518.121C1497.15 506.371 1510.65 501.371 1525.65 501.371C1553.4 501.371 1569.15 518.371 1569.15 547.621Z" fill="#E1047B"/>
<path d="M1608.64 527.621H1585.14V503.871H1608.89V489.871C1608.89 458.621 1626.64 450.371 1646.14 450.371C1655.64 450.371 1662.89 452.371 1669.39 455.371L1659.64 478.371C1656.89 476.621 1653.39 475.371 1649.39 475.371C1638.64 475.371 1638.64 485.121 1638.64 489.621V503.871H1667.39V527.621H1638.64V627.121H1608.64V527.621Z" fill="#E1047B"/>
<path d="M1670.4 565.383C1670.4 530.383 1693.9 501.383 1732.15 501.383C1770.4 501.383 1793.9 530.383 1793.9 565.383C1793.9 600.383 1770.15 629.633 1732.15 629.633C1694.15 629.633 1670.4 600.133 1670.4 565.383ZM1763.9 565.383C1763.9 545.133 1754.9 527.633 1732.15 527.633C1709.4 527.633 1700.4 545.133 1700.4 565.383C1700.4 585.633 1709.4 603.383 1732.15 603.383C1754.9 603.383 1763.9 585.383 1763.9 565.383Z" fill="#E1047B"/>
<path fill-rule="evenodd" clip-rule="evenodd" d="M558.42 520.8L547.34 501.6L536.26 482.4L514.09 444L503 424.79L491.92 405.59H425.41L436.49 424.79L458.66 463.19L469.74 482.39L480.83 501.59L491.91 520.79L503 539.99L491.91 559.19L480.83 578.39L469.74 597.59L458.66 616.79L447.58 635.99L436.5 655.19L425.42 674.39H491.93L503.01 655.19L514.1 635.99L525.18 616.79L536.26 597.59L547.34 578.39L558.42 559.19L569.5 539.99L558.42 520.79V520.8Z" fill="#E1047B"/>
<path fill-rule="evenodd" clip-rule="evenodd" d="M425.397 520.802H425.387H425.397L414.307 540.002L403.227 559.202H403.217L392.147 578.402H392.137L381.057 597.602L369.967 616.802L358.887 636.002L347.797 655.202H303.457L314.547 636.002V635.992L325.627 616.802L336.707 597.602H336.717V597.592L358.887 559.202L369.967 540.002L381.057 520.802L392.137 501.602H436.487L425.397 520.802Z" fill="#FDFDFD"/>
<path fill-rule="evenodd" clip-rule="evenodd" d="M259.119 655.202L248.039 636.002L236.959 616.802L225.879 597.602L214.789 578.402L203.709 559.202L192.619 540.002L203.709 520.802L214.789 501.602L225.879 482.402L236.959 463.202L259.129 424.802L270.209 405.602H203.699L192.619 424.802L181.539 444.002L159.369 482.402L148.289 501.602L137.209 520.802L126.129 540.002L137.209 559.202L148.289 578.402L159.369 597.602L170.449 616.802L181.529 636.002L192.609 655.202L203.689 674.402H270.199L259.119 655.202Z" fill="#E1047B"/>
<path fill-rule="evenodd" clip-rule="evenodd" d="M392.137 424.801L381.057 444.001V444.011L358.887 482.401V482.411L347.797 501.601L336.717 520.801L325.637 540.001L314.547 559.201L303.457 578.401H259.117L270.197 559.201H270.207L281.287 540.001L292.367 520.801H292.377L303.457 501.601L314.547 482.401L325.627 463.201L336.707 444.001H336.717L347.797 424.801H369.967H392.137Z" fill="#FDFDFD"/>
</svg>
