<svg width="1920" height="1080" viewBox="0 0 1920 1080" fill="none" xmlns="http://www.w3.org/2000/svg">
<path d="M447.602 673.02H393.102V644.27H533.602V673.02H479.102V818.52H447.602V673.02Z" fill="#FDFDFD"/>
<path d="M621.602 699.77L607.102 726.27C602.852 723.52 598.102 722.02 592.102 722.02C573.852 722.02 564.852 733.27 564.852 756.52V818.52H534.852V695.27H565.102V716.27C570.352 701.02 584.102 692.77 598.102 692.77C606.352 692.77 613.602 694.77 621.602 699.77Z" fill="#FDFDFD"/>
<path d="M636.102 644.27H667.602V672.02H636.102V644.27ZM636.852 695.27H666.852V818.52H636.852V695.27Z" fill="#FDFDFD"/>
<path d="M700.602 789.02V644.27H730.602V787.02C730.602 792.52 733.852 794.77 739.352 794.77C742.102 794.77 745.352 794.27 748.852 793.27V817.27C742.102 819.77 735.352 821.02 729.602 821.02C712.852 821.02 700.602 811.02 700.602 789.02Z" fill="#FDFDFD"/>
<path d="M882.352 739.02V818.52H852.352V746.52C852.352 727.77 845.102 719.02 829.602 719.02C809.852 719.02 801.602 733.77 801.602 769.27V818.52H771.602V644.27H801.602V709.27C809.852 698.52 822.602 692.77 838.852 692.77C866.602 692.77 882.352 709.52 882.352 739.02Z" fill="#FDFDFD"/>
<path d="M1015.09 740.77V818.52H987.59L985.09 802.52C977.84 814.02 963.84 821.02 947.59 821.02C921.59 821.02 903.09 804.27 903.09 780.77C903.09 766.27 909.59 755.27 921.59 749.77C929.84 746.02 940.34 744.27 954.34 744.27H985.09V740.77C985.09 727.27 976.09 719.02 961.84 719.02C949.34 719.02 937.59 725.52 928.59 737.52L906.84 719.27C921.59 701.52 939.84 692.77 962.34 692.77C994.84 692.77 1015.09 711.02 1015.09 740.77ZM985.09 766.77H958.34C948.09 766.77 942.09 768.02 938.09 771.02C934.84 773.27 933.09 776.77 933.09 781.27C933.09 790.02 940.34 795.52 952.34 795.52C970.34 795.52 985.09 782.77 985.09 766.77Z" fill="#FDFDFD"/>
<path d="M1052.4 786.02H1082.65V818.52H1052.4V786.02Z" fill="#008FF6"/>
<path d="M1120.65 644.27H1151.9V818.52H1120.65V644.27Z" fill="#E1047B"/>
<path d="M1302.15 739.02V818.52H1272.15V746.52C1272.15 738.02 1272.15 719.02 1249.4 719.02C1221.4 719.02 1221.4 747.27 1221.4 769.27V818.52H1191.4V695.27H1221.4V709.52C1230.15 697.77 1243.65 692.77 1258.65 692.77C1286.4 692.77 1302.15 709.77 1302.15 739.02Z" fill="#E1047B"/>
<path d="M1341.65 719.02H1318.15V695.27H1341.9V681.27C1341.9 650.02 1359.65 641.77 1379.15 641.77C1388.65 641.77 1395.9 643.77 1402.4 646.77L1392.65 669.77C1389.9 668.02 1386.4 666.77 1382.4 666.77C1371.65 666.77 1371.65 676.52 1371.65 681.02V695.27H1400.4V719.02H1371.65V818.52H1341.65V719.02Z" fill="#E1047B"/>
<path d="M1403.4 756.77C1403.4 721.77 1426.9 692.77 1465.15 692.77C1503.4 692.77 1526.9 721.77 1526.9 756.77C1526.9 791.77 1503.15 821.02 1465.15 821.02C1427.15 821.02 1403.4 791.52 1403.4 756.77ZM1496.9 756.77C1496.9 736.52 1487.9 719.02 1465.15 719.02C1442.4 719.02 1433.4 736.52 1433.4 756.77C1433.4 777.02 1442.4 794.77 1465.15 794.77C1487.9 794.77 1496.9 776.77 1496.9 756.77Z" fill="#E1047B"/>
<path fill-rule="evenodd" clip-rule="evenodd" d="M1170.62 374.179L1159.54 354.979L1148.46 335.779L1126.29 297.379L1115.2 278.169L1104.12 258.969H1037.61L1048.69 278.169L1070.86 316.569L1081.94 335.769L1093.03 354.969L1104.11 374.169L1115.2 393.369L1104.11 412.569L1093.03 431.769L1081.94 450.969L1070.86 470.169L1059.78 489.369L1048.7 508.569L1037.62 527.769H1104.13L1115.21 508.569L1126.3 489.369L1137.38 470.169L1148.46 450.969L1159.54 431.769L1170.62 412.569L1181.7 393.369L1170.62 374.169V374.179Z" fill="#E1047B"/>
<path fill-rule="evenodd" clip-rule="evenodd" d="M1037.6 374.18H1037.59L1026.51 393.38L1015.43 412.58H1015.42L1004.34 431.78L993.26 450.98L982.17 470.17L971.09 489.38H971.08L960 508.58H915.66L926.74 489.38V489.37L937.83 470.17L948.91 450.98H948.92V450.97L971.08 412.58V412.57L982.17 393.38L993.26 374.18L1004.34 354.98H1048.68L1037.6 374.18Z" fill="#FDFDFD"/>
<path fill-rule="evenodd" clip-rule="evenodd" d="M871.322 508.58L860.242 489.38L849.162 470.18L838.082 450.98L826.992 431.78L815.912 412.58L804.822 393.38L815.912 374.18L826.992 354.98L838.082 335.78L849.162 316.58L871.332 278.18L882.412 258.98H815.902L804.822 278.18L793.742 297.38L771.572 335.78L760.492 354.98L749.412 374.18L738.332 393.38L749.412 412.58L760.492 431.78L771.572 450.98L782.652 470.18L793.732 489.38L804.812 508.58L815.892 527.78H882.402L871.322 508.58Z" fill="#E1047B"/>
<path fill-rule="evenodd" clip-rule="evenodd" d="M1004.34 278.18L993.26 297.38L971.09 335.78H971.08L960 354.98L948.92 374.18L937.83 393.38L926.74 412.58L915.66 431.78H871.32L882.4 412.58H882.41V412.57L893.49 393.38L904.57 374.18H904.58L915.66 354.98L926.74 335.78L937.83 316.58L948.91 297.38H948.92L960 278.18H982.17H1004.34Z" fill="#FDFDFD"/>
</svg>
